<?xml version="1.0" encoding="utf-8"?>
<svg version="1.2" width="1000px" height="1000px" xmlns:xlink="http://www.w3.org/1999/xlink" baseProfile="tiny-ps" xmlns="http://www.w3.org/2000/svg">
  <title>Colpaert XYZ</title>
  <g>
    <path fill="#fefefe" d="M 999.5,0.5 C 999.5,333.5 999.5,666.5 999.5,999.5C 666.5,999.5 333.5,999.5 0.5,999.5C 0.5,666.5 0.5,333.5 0.5,0.5C 333.5,0.5 666.5,0.5 999.5,0.5 Z" />
  </g>
  <g>
    <path fill="#101010" d="M 487.5,9.5 C 642.354,9.529 770.854,67.1957 873,182.5C 972.89,304.945 1008.22,444.278 979,600.5C 945.622,744.203 865.456,853.036 738.5,927C 606.475,997.692 469.808,1008.36 328.5,959C 190.578,904.078 94.4116,807.578 40,669.5C -0.633088,555.762 -0.633088,442.095 40,328.5C 98.6832,182.148 202.517,83.3149 351.5,32C 395.944,18.4864 441.278,10.9864 487.5,9.5 Z" />
  </g>
  <g>
    <path fill="#fefefe" d="M 470.5,44.5 C 622.896,39.8067 749.062,94.4734 849,208.5C 949.076,334.539 977.742,475.539 935,631.5C 887.663,773.836 794.163,872.336 654.5,927C 525.506,971.738 400.84,962.071 280.5,898C 151.703,823.12 74.5359,711.953 49,564.5C 30.7632,409.194 77.2632,277.027 188.5,168C 268.273,94.7821 362.273,53.6155 470.5,44.5 Z" />
  </g>
  <g>
    <path fill="#0b0b0b" d="M 391.5,120.5 C 391.59,117.848 390.924,115.515 389.5,113.5C 388.287,105.616 386.62,97.9493 384.5,90.5C 384.59,87.8478 383.924,85.5145 382.5,83.5C 381.678,75.3678 377.678,73.3678 370.5,77.5C 369.417,76.635 369.251,75.635 370,74.5C 375.921,70.456 381.755,66.2894 387.5,62C 388.793,61.51 390.127,61.3433 391.5,61.5C 398.374,95.3656 406.207,129.032 415,162.5C 415.5,163 416,163.5 416.5,164C 419.882,164.176 423.215,164.676 426.5,165.5C 415.688,168.954 404.688,171.954 393.5,174.5C 392.614,173.675 392.281,172.675 392.5,171.5C 398.947,171.551 401.614,168.384 400.5,162C 398.368,147.973 395.368,134.14 391.5,120.5 Z" />
  </g>
  <g>
    <path fill="#090909" d="M 451.5,160.5 C 451.44,159.957 451.107,159.624 450.5,159.5C 449.2,162.309 449.2,164.976 450.5,167.5C 451.066,174.488 451.566,181.488 452,188.5C 454.887,192.994 459.054,194.661 464.5,193.5C 464.5,194.5 464.5,195.5 464.5,196.5C 452.115,197.004 439.782,198.004 427.5,199.5C 427.5,198.5 427.5,197.5 427.5,196.5C 431.422,196.931 434.922,195.931 438,193.5C 439.563,188.282 439.896,182.949 439,177.5C 436.336,153.534 434.003,129.534 432,105.5C 429.039,102.384 425.539,101.717 421.5,103.5C 421.167,103 420.833,102.5 420.5,102C 427.614,97.1095 435.281,93.2761 443.5,90.5C 443.149,95.9783 443.816,101.312 445.5,106.5C 446.298,106.043 446.631,105.376 446.5,104.5C 453.933,88.4493 465.6,84.2826 481.5,92C 497.114,107.312 500.614,125.146 492,145.5C 482.98,162.673 469.48,167.673 451.5,160.5 Z" />
  </g>
  <g>
    <path fill="#090909" d="M 561.5,117.5 C 560.043,122.598 559.376,127.931 559.5,133.5C 558.543,140.477 558.377,147.477 559,154.5C 559.739,155.574 560.739,156.241 562,156.5C 564.898,155.437 567.398,153.77 569.5,151.5C 570.614,152.723 570.781,154.056 570,155.5C 565.843,160.671 560.51,163.671 554,164.5C 551.53,164.66 549.364,163.993 547.5,162.5C 546.016,159.383 545.016,156.05 544.5,152.5C 537.135,159.354 528.468,162.521 518.5,162C 507.957,157.089 504.123,148.922 507,137.5C 509.5,132.333 513.333,128.5 518.5,126C 528.348,121.499 538.515,117.999 549,115.5C 550.127,109.245 549.46,103.245 547,97.5C 540.528,91.4622 533.861,91.1289 527,96.5C 525.847,99.7111 525.18,103.044 525,106.5C 522.009,113.415 518.009,114.082 513,108.5C 512.225,99.2333 516.392,93.0666 525.5,90C 536.335,87.3214 546.668,88.6547 556.5,94C 558.359,95.5578 559.859,97.3911 561,99.5C 561.499,105.491 561.666,111.491 561.5,117.5 Z" />
  </g>
  <g>
    <path fill="#9d9d9d" d="M 382.5,83.5 C 383.924,85.5145 384.59,87.8478 384.5,90.5C 383.076,88.4855 382.41,86.1522 382.5,83.5 Z" />
  </g>
  <g>
    <path fill="#fbfbfb" d="M 458.5,99.5 C 468.695,99.5142 475.861,104.181 480,113.5C 484.665,125.821 484.665,138.155 480,150.5C 474.254,159.192 466.421,161.692 456.5,158C 452.42,155.688 449.92,152.188 449,147.5C 447.857,135.996 446.69,124.496 445.5,113C 447.971,106.696 452.304,102.196 458.5,99.5 Z" />
  </g>
  <g>
    <path fill="#939393" d="M 443.5,90.5 C 444.21,95.2201 445.21,99.8868 446.5,104.5C 446.631,105.376 446.298,106.043 445.5,106.5C 443.816,101.312 443.149,95.9783 443.5,90.5 Z" />
  </g>
  <g>
    <path fill="#0a0a0a" d="M 603.5,102.5 C 620.805,99.5645 632.972,105.898 640,121.5C 640.676,126.871 640.509,132.204 639.5,137.5C 623.35,133.962 607.35,130.128 591.5,126C 586.91,139.897 589.91,151.897 600.5,162C 613.551,169.432 624.385,166.932 633,154.5C 633.692,155.025 634.192,155.692 634.5,156.5C 623.862,176.547 608.529,181.38 588.5,171C 577.926,160.664 574.426,148.164 578,133.5C 581.295,118.72 589.795,108.387 603.5,102.5 Z" />
  </g>
  <g>
    <path fill="#f6f6f6" d="M 606.5,106.5 C 621.929,106.599 628.262,114.265 625.5,129.5C 616.119,127.655 606.786,125.489 597.5,123C 595.579,122.64 593.912,121.806 592.5,120.5C 595.549,114.117 600.216,109.45 606.5,106.5 Z" />
  </g>
  <g>
    <path fill="#0a0a0a" d="M 333.5,116.5 C 349.37,115.186 361.537,121.186 370,134.5C 377.331,148.482 377.331,162.482 370,176.5C 361.127,188.347 349.293,193.18 334.5,191C 313.629,182.107 304.462,166.273 307,143.5C 310.695,129.306 319.528,120.306 333.5,116.5 Z" />
  </g>
  <g>
    <path fill="#9d9d9d" d="M 389.5,113.5 C 390.924,115.515 391.59,117.848 391.5,120.5C 390.076,118.485 389.41,116.152 389.5,113.5 Z" />
  </g>
  <g>
    <path fill="#f9f9f9" d="M 545.5,121.5 C 547.344,123.279 548.01,125.612 547.5,128.5C 547.5,130.167 547.5,131.833 547.5,133.5C 545.896,137.9 545.229,142.566 545.5,147.5C 538.985,153.516 531.652,155.016 523.5,152C 517.566,143.677 518.233,136.01 525.5,129C 531.776,125.409 538.443,122.909 545.5,121.5 Z" />
  </g>
  <g>
    <path fill="#0b0b0b" d="M 653.5,122.5 C 661.889,122.197 670.222,122.53 678.5,123.5C 677.709,128.191 676.042,132.858 673.5,137.5C 673.833,137.833 674.167,138.167 674.5,138.5C 680.585,132.305 687.918,129.805 696.5,131C 705.815,136.655 705.815,142.155 696.5,147.5C 695.062,147.281 693.729,146.781 692.5,146C 690.5,143.333 688.5,140.667 686.5,138C 680.582,138.033 675.416,140.199 671,144.5C 666.345,155.788 661.678,167.122 657,178.5C 656.333,181.833 656.333,185.167 657,188.5C 658.033,191.033 659.867,192.699 662.5,193.5C 663.833,194.5 663.833,195.5 662.5,196.5C 651.524,192.129 640.857,187.296 630.5,182C 630.833,181.5 631.167,181 631.5,180.5C 635.519,182.018 639.352,181.684 643,179.5C 648.48,166.051 654.147,152.717 660,139.5C 661.617,135.961 662.283,132.294 662,128.5C 659.581,126.415 656.747,125.415 653.5,125.5C 653.5,124.5 653.5,123.5 653.5,122.5 Z" />
  </g>
  <g>
    <path fill="#fbfbfb" d="M 329.5,122.5 C 339.27,122.635 347.103,126.635 353,134.5C 361.432,145.795 365.432,158.462 365,172.5C 359.623,183.74 351.123,186.906 339.5,182C 323.617,169.37 316.45,152.87 318,132.5C 320.818,127.839 324.651,124.505 329.5,122.5 Z" />
  </g>
  <g>
    <path fill="#707070" d="M 545.5,121.5 C 546.209,120.596 547.209,120.263 548.5,120.5C 548.806,123.385 548.473,126.052 547.5,128.5C 548.01,125.612 547.344,123.279 545.5,121.5 Z" />
  </g>
  <g>
    <path fill="#090909" d="M 737.5,128.5 C 738.675,128.281 739.675,128.614 740.5,129.5C 736.833,136.167 733.167,142.833 729.5,149.5C 734.5,152.333 739.5,155.167 744.5,158C 743.881,159.757 742.714,160.924 741,161.5C 736.594,159.047 732.094,156.713 727.5,154.5C 719.412,169.008 711.579,183.675 704,198.5C 702.421,209.646 706.921,212.979 717.5,208.5C 717.833,208.833 718.167,209.167 718.5,209.5C 711.123,217.293 702.956,218.293 694,212.5C 690.676,207.676 689.676,202.343 691,196.5C 699.302,180.729 707.469,164.896 715.5,149C 712.493,146.831 709.493,144.664 706.5,142.5C 716.803,141.43 726.136,137.93 734.5,132C 735.71,130.961 736.71,129.794 737.5,128.5 Z" />
  </g>
  <g>
    <path fill="#959595" d="M 561.5,117.5 C 561.624,123.069 560.957,128.402 559.5,133.5C 559.376,127.931 560.043,122.598 561.5,117.5 Z" />
  </g>
  <g>
    <path fill="#959595" d="M 547.5,133.5 C 547.468,138.391 546.801,143.057 545.5,147.5C 545.229,142.566 545.896,137.9 547.5,133.5 Z" />
  </g>
  <g>
    <path fill="#090909" d="M 264.5,146.5 C 273.634,144.788 281.467,147.121 288,153.5C 288.55,161.601 284.717,164.768 276.5,163C 269.449,151.297 261.282,150.464 252,160.5C 247.998,171.427 249.331,181.76 256,191.5C 262.696,202.094 272.196,207.26 284.5,207C 293.744,204.754 299.244,198.921 301,189.5C 302.556,175.307 304.056,175.807 305.5,191C 304.254,211.919 293.254,221.919 272.5,221C 257.77,216.604 247.937,207.104 243,192.5C 237.046,170.807 244.213,155.473 264.5,146.5 Z" />
  </g>
  <g>
    <path fill="#828282" d="M 451.5,160.5 C 450.532,162.607 450.198,164.941 450.5,167.5C 449.2,164.976 449.2,162.309 450.5,159.5C 451.107,159.624 451.44,159.957 451.5,160.5 Z" />
  </g>
  <g>
    <path fill="#909090" d="M 231.5,280.5 C 409.5,280.333 587.5,280.5 765.5,281C 772.745,282.577 777.911,286.744 781,293.5C 781.667,430.167 781.667,566.833 781,703.5C 778.732,711.435 773.565,716.268 765.5,718C 587.5,718.667 409.5,718.667 231.5,718C 224.599,715.432 220.099,710.598 218,703.5C 217.333,567.167 217.333,430.833 218,294.5C 220.687,287.981 225.187,283.314 231.5,280.5 Z" />
  </g>
  <g>
    <path fill="#fdfdfd" d="M 259.5,300.5 C 422.333,299.334 585.333,299.167 748.5,300C 671.5,376.333 594.5,452.667 517.5,529C 507.852,536.556 498.518,536.222 489.5,528C 412.965,451.965 336.299,376.132 259.5,300.5 Z" />
  </g>
  <g>
    <path fill="#fefefe" d="M 237.5,641.5 C 236.501,530.335 236.167,419.001 236.5,307.5C 236.272,305.645 236.939,304.812 238.5,305C 302.167,368 365.833,431 429.5,494C 365.6,543.413 301.6,592.58 237.5,641.5 Z" />
  </g>
  <g>
    <path fill="#0b0b0b" d="M 520.5,310.5 C 517.686,309.835 514.686,309.502 511.5,309.5C 506.893,309.316 502.56,309.983 498.5,311.5C 468.502,317.652 447.669,334.985 436,363.5C 427.167,386.492 426.167,409.826 433,433.5C 443.281,460.061 462.448,475.894 490.5,481C 522.623,484.967 549.123,474.8 570,450.5C 574.94,443.622 579.106,436.289 582.5,428.5C 584.5,427.167 586.5,427.167 588.5,428.5C 573.134,466.349 544.967,486.016 504,487.5C 459.58,485.733 431.913,463.4 421,420.5C 415.244,389.714 421.911,362.048 441,337.5C 471.692,304.788 507.859,296.954 549.5,314C 570.286,327.559 580.953,346.892 581.5,372C 580.775,388.722 575.941,404.222 567,418.5C 554.429,436.462 537.595,442.962 516.5,438C 515.213,436.59 514.046,435.09 513,433.5C 512.725,427.151 512.725,420.818 513,414.5C 506.5,422.333 499.333,429.5 491.5,436C 470.999,446.914 459.666,440.748 457.5,417.5C 461.677,387.854 476.677,365.687 502.5,351C 514.246,347.187 522.913,350.687 528.5,361.5C 529.798,358.578 530.798,355.578 531.5,352.5C 536.537,351.741 541.537,351.741 546.5,352.5C 539.524,374.747 533.024,397.081 527,419.5C 526.146,423.625 526.48,427.625 528,431.5C 529.822,433.045 531.989,433.712 534.5,433.5C 546.134,431.382 555.301,425.382 562,415.5C 573.758,395.953 577.425,374.953 573,352.5C 564.559,327.23 547.059,313.23 520.5,310.5 Z" />
  </g>
  <g>
    <path fill="#c6c6c6" d="M 236.5,307.5 C 236.167,419.001 236.501,530.335 237.5,641.5C 237.44,642.043 237.107,642.376 236.5,642.5C 235.168,530.667 235.168,419.001 236.5,307.5 Z" />
  </g>
  <g>
    <path fill="#878787" d="M 520.5,310.5 C 513.138,310.365 505.804,310.698 498.5,311.5C 502.56,309.983 506.893,309.316 511.5,309.5C 514.686,309.502 517.686,309.835 520.5,310.5 Z" />
  </g>
  <g>
    <path fill="#c6c6c6" d="M 761.5,641.5 C 762.833,532.167 762.833,422.833 761.5,313.5C 761.783,312.711 762.283,312.044 763,311.5C 763.833,421.835 763.667,532.168 762.5,642.5C 761.893,642.376 761.56,642.043 761.5,641.5 Z" />
  </g>
  <g>
    <path fill="#fefefe" d="M 761.5,313.5 C 762.833,422.833 762.833,532.167 761.5,641.5C 699.352,593.53 637.018,545.697 574.5,498C 637.339,436.994 699.672,375.494 761.5,313.5 Z" />
  </g>
  <g>
    <path fill="#fbfbfb" d="M 507.5,354.5 C 514.852,352.759 520.352,355.092 524,361.5C 525.429,386.135 517.263,406.968 499.5,424C 494.285,428.405 488.285,430.405 481.5,430C 477.942,428.108 475.442,425.275 474,421.5C 474.485,397.72 482.985,377.22 499.5,360C 502.07,357.913 504.737,356.08 507.5,354.5 Z" />
  </g>
  <g>
    <path fill="#fefefe" d="M 441.5,507.5 C 458.248,522.746 474.581,538.579 490.5,555C 498.293,561.545 506.627,562.212 515.5,557C 530.5,542 545.5,527 560.5,512C 561.167,511.333 561.833,511.333 562.5,512C 629.024,563.358 695.691,614.525 762.5,665.5C 763.92,675.224 763.754,684.891 762,694.5C 760.238,697.268 757.738,698.768 754.5,699C 583.5,699.667 412.5,699.667 241.5,699C 238.865,697.039 237.031,694.539 236,691.5C 235.168,682.814 235.335,674.147 236.5,665.5C 305.083,613.055 373.416,560.389 441.5,507.5 Z" />
  </g>
  <g>
    <path fill="#090909" d="M 405.5,929.5 C 406.815,926.373 406.482,923.373 404.5,920.5C 401.643,910.427 398.476,900.427 395,890.5C 394.632,889.09 393.799,888.09 392.5,887.5C 380.858,895.974 369.358,904.641 358,913.5C 356.699,915.365 356.365,917.365 357,919.5C 359.229,922.364 362.063,924.364 365.5,925.5C 365.167,926.5 364.5,927.167 363.5,927.5C 353.216,924.512 342.883,921.679 332.5,919C 330.714,918.804 329.381,917.971 328.5,916.5C 337.36,915.702 345.694,913.202 353.5,909C 366.47,899.692 379.137,890.025 391.5,880C 386.133,863.235 379.966,846.735 373,830.5C 369.297,824.735 364.13,821.068 357.5,819.5C 357.5,818.5 357.5,817.5 357.5,816.5C 373.167,820.5 388.833,824.5 404.5,828.5C 404.719,829.675 404.386,830.675 403.5,831.5C 400.092,830.106 396.759,830.272 393.5,832C 392.106,832.956 391.439,834.289 391.5,836C 395.456,847.369 399.123,858.869 402.5,870.5C 404.783,870.392 406.783,869.559 408.5,868C 417.289,861.546 425.789,854.713 434,847.5C 435.043,841.034 432.209,837.7 425.5,837.5C 425.281,836.325 425.614,835.325 426.5,834.5C 436.784,837.488 447.117,840.321 457.5,843C 469.826,843.009 482.16,842.842 494.5,842.5C 494.5,843.5 494.5,844.5 494.5,845.5C 490.537,845.089 486.87,845.922 483.5,848C 482.398,850.401 482.231,852.901 483,855.5C 491.614,869.269 500.78,882.602 510.5,895.5C 518.964,882.537 526.797,869.203 534,855.5C 535.209,847.539 531.709,843.872 523.5,844.5C 523.5,843.5 523.5,842.5 523.5,841.5C 535.167,841.5 546.833,841.5 558.5,841.5C 558.33,840.178 558.663,839.011 559.5,838C 583.731,830.032 608.064,823.198 632.5,817.5C 619.537,854.889 606.87,892.389 594.5,930C 594.833,930.5 595.167,931 595.5,931.5C 612.28,926.306 628.946,920.806 645.5,915C 652.223,908.28 654.89,900.113 653.5,890.5C 654.5,890.5 655.5,890.5 656.5,890.5C 657.226,899.024 658.226,907.524 659.5,916C 659.167,916.833 658.833,917.667 658.5,918.5C 631.833,926.5 605.167,934.5 578.5,942.5C 576.616,941.307 576.116,939.641 577,937.5C 589.634,901.286 601.801,864.952 613.5,828.5C 602.098,831.355 590.765,834.522 579.5,838C 567.25,841.974 562.25,850.474 564.5,863.5C 562.389,857.11 560.722,850.61 559.5,844C 553.378,844.816 548.211,847.649 544,852.5C 533.749,868.666 523.749,885 514,901.5C 513.333,912.5 513.333,923.5 514,934.5C 515.311,943.422 520.478,946.756 529.5,944.5C 529.5,945.5 529.5,946.5 529.5,947.5C 514.504,947.967 499.504,948.3 484.5,948.5C 484.5,947.5 484.5,946.5 484.5,945.5C 489.715,946.298 494.215,944.964 498,941.5C 499.606,929.238 499.939,916.904 499,904.5C 487,887.167 475,869.833 463,852.5C 458.421,847.277 452.921,845.777 446.5,848C 432.301,857.267 418.634,867.267 405.5,878C 411.478,895.603 417.645,913.103 424,930.5C 425.896,937.695 430.396,942.029 437.5,943.5C 437.5,944.5 437.5,945.5 437.5,946.5C 422.755,943.147 408.089,939.48 393.5,935.5C 393.5,934.5 393.5,933.5 393.5,932.5C 396.469,933.329 399.469,933.495 402.5,933C 403.71,931.961 404.71,930.794 405.5,929.5 Z" />
  </g>
  <g>
    <path fill="#090909" d="M 722.5,869.5 C 730.584,869.074 734.417,872.741 734,880.5C 728.581,888.41 723.248,888.41 718,880.5C 717.333,878.5 717.333,876.5 718,874.5C 719.707,872.963 721.207,871.296 722.5,869.5 Z" />
  </g>
  <g>
    <path fill="#030303" d="M 265.5,871.5 C 274.657,870.489 278.49,874.489 277,883.5C 272.625,888.381 267.958,888.715 263,884.5C 260.458,879.438 261.292,875.105 265.5,871.5 Z" />
  </g>
  <g>
    <path fill="#0b0b0b" d="M 686.5,888.5 C 698.301,890.587 700.301,896.087 692.5,905C 683.386,906.553 679.553,902.72 681,893.5C 682.73,891.598 684.563,889.931 686.5,888.5 Z" />
  </g>
  <g>
    <path fill="#0d0d0d" d="M 304.5,889.5 C 313.034,889.861 316.534,894.194 315,902.5C 311.95,906.13 308.117,907.297 303.5,906C 296.644,900.1 296.977,894.6 304.5,889.5 Z" />
  </g>
  <g>
    <path fill="#929292" d="M 404.5,920.5 C 406.482,923.373 406.815,926.373 405.5,929.5C 405.296,926.482 404.963,923.482 404.5,920.5 Z" />
  </g>
</svg>